<?xml version="1.0" encoding="utf-8"?>
<!-- Generator: Adobe Illustrator 16.0.0, SVG Export Plug-In . SVG Version: 6.00 Build 0)  -->
<!DOCTYPE svg PUBLIC "-//W3C//DTD SVG 1.1//EN" "http://www.w3.org/Graphics/SVG/1.1/DTD/svg11.dtd">
<svg version="1.1" xmlns="http://www.w3.org/2000/svg" xmlns:xlink="http://www.w3.org/1999/xlink" x="0px" y="0px" width="595.2px"
	 height="841.92px" viewBox="0 0 595.2 841.92" enable-background="new 0 0 595.2 841.92" xml:space="preserve">
<g id="Shape_10_1_" enable-background="new    ">
	<g id="Shape_10">
		<g>
			<path fill="#0C0B07" d="M618.657,495.375l-11.328-27.072c0,0-5.109-13.405,0.091-19.401c5.204-5.993-0.412-0.933-0.412-0.933
				l-15.931-58.945l-7.06-8.535l-8.161-1.484l-9.713-2.992c0,0-12.697,3.206-14.16-3.712c-1.463-6.921,15.453-13.84,15.453-13.84
				l0.21-17.182l3.562-51.693l1.138-13.413l5.318-32.072l-1.278-10.425l-6.384,4.463l-0.503,0.933
				c-1.336,2.212-10.373,17.295-15.167,28.101c-0.028,0.062-0.058,0.127-0.086,0.19c-1.196,2.712-2.118,5.146-2.574,7.025
				c0,0-2.627,20.167-2.097,23.319c0.533,3.149-4.32,15.804-4.32,15.804l-4.781,21.233c0,0-2.459,23.338-18.492,33.074
				c-7.985,4.849-19.527,9.646-29.104,13.24c-0.005,0.002-0.011,0.004-0.017,0.006c-9.644,3.619-17.289,6.018-17.289,6.018
				s-35.107,3.416-44.35-4.688c-9.242-8.105-15.547-23.356-15.547-23.356s-14.382-22.146-23.624-30.25
				c-9.246-8.102-26.41-27.239-26.41-27.239s-18.867-16.51-24.972-34.951c-6.104-18.439-16.971-43.63-16.971-43.63
				s-6.571-13.329-10.079-24.274c-3.513-10.945-6.896-12.361-6.896-12.361l-1.519-22.177c0,0,2.97-6.514,2.456-9.347
				c-0.517-2.836-4.064-0.426-7.565,2.936c-3.501,3.362-3.93-4.884-3.93-4.884l-3.322,13.846c0,0,2.05,25.329,5.531,28.645
				c0,0,4.589,17.566,9.665,23.345c5.079,5.775,6.456,18.103,12.398,26.379s6.813,32.075,13.707,37.442
				c6.895,5.365,18.278,26.391,18.278,26.391l25.161,24.448c0,0,27.257,29.424,31.408,52.736c0,0-40.692,16.106-84.89,14.27
				c0,0-7.665,1.036-14.476-2.744c-6.815-3.78-16.377-3.92-20.606-7.514c-4.232-3.594-21.073-9.395-21.073-9.395l-48.108-13.398
				c0,0-28.303-7.111-30.734-11.439c-2.427-4.325-18.856-2.199-8.933-23.38c0,0-0.363-6.978-4.796-0.387
				c-4.436,6.59-4.637,9.78-4.637,9.78s-13.406-10.43-13.455-11.382c-0.049-0.952-6.265-0.312-2.605,6.495l12.955,15.86l0.396,7.607
				c0,0-28.664,14.209-53.047-2.327l-2.684,4.908c0,0-14.832,4.585,0.563,3.785c0,0,9.897-0.515,15.244,3.342
				c0,0-22.462,6.256-50.765-0.858c-28.303-7.111-31.333-8.862-31.333-8.862l-28.6-12.821c0,0-6.613,0.027,2.497,5.593
				c0,0-18.711,0.656-1.452,7.389c0,0,15.889,8.711,19.489,7.252c0,0,45.839,19.239,65.999,18.19
				c20.157-1.048,70.145-8.098,70.145-8.098s0.446-0.138,1.342-0.296c-0.256,1.32-0.31,2.468-0.11,2.775
				c0.748,1.153,9.061,23.438,14.859,24.654l-36.283,1.579l-8.1-0.216c0,0-17.789-2.889-25.206,2.899
				c0,0-12.832,0.667-26.817-13.865c0,0-7.598,2.301,5.873,14.002l16.304,9.643c0,0-3.504,10.356-8.52,12.845
				c0,0-43.667,1.316-47.768,7.252c0,0-1.153,6.1,4.114,1.374c0,0,43.703-7.677,38.536-1.049c0,0,1.779,5.95,9.416-2.715
				c0,0,8.182-5.194,13.207-21.671c0,0,21.422,2.066,24.673,0.943l13.563-0.705c0,0-1.969,4.554,22.891,1.99
				c0,0-1.89,13.134,7.609,5.009c4.172-3.567,5.756-5.099,6.222-5.696c3.457,0.001,20.104,0.109,21.52,2.029
				c1.581,2.143,11.544,2.896-2.528,22.07c-14.07,19.174-15.047,35.758-15.047,35.758s-1.584,4.851-5.549,6.328
				c-3.969,1.478-6.686,5.753-5.056,8.848c1.63,3.093-4.139,12.298-4.139,12.298s-4.183,4.349-3.553,9.404
				c0,0-5.836,7.935-0.806,12.761c0,0-3.614-5.854,7.789-12.807c0,0-0.462-8.879,10.167-9.431l-0.709-13.634
				c0,0,10.948-1.524,9.587-13.535l3.452-4.313l-0.036,6.361c0,0,1.127,7.572,3.231-1.439l4.307-16.123
				c0,0,5.74-16.829,11.408-20.94c0,0,3.59-8.771,17.587-15.222l57.728,0.495c0,0,11.226,3.868-1.672,10.261l-21.151,17.316
				c0,0-14.485,11.244,3.357,15.087l1.411,12.963c0,0,2.981,0.8,1.295,3.747c-1.684,2.95-4.015,0.528-4.015,0.528
				s-12.4,8.91-8.19,19.183c4.21,10.274,1.749-1.68,1.749-1.68s5.44-15.545,18.286-15.893c12.849-0.351-0.28-5.391-0.28-5.391
				s1.491-13.751-3.203-19.229c0,0,25.331-14.671,25.199-17.207c-0.132-2.538,0.333-0.654,0.333-0.654s10.035-4.973,10.236-8.163
				c0,0,6.534-8.604,31.062-10.518c23.006-1.79,49.991-1.832,53.238-1.83c0.214,0,0.326,0,0.326,0s-0.042,0.028-0.108,0.072
				c15.405,4.959,33.026,2.423,45.617,12.679c0.003,0.002,0.005,0.004,0.008,0.006c0.354,0.289,0.706,0.589,1.053,0.898
				c13.533-0.948,19.179-0.223,19.179-0.223s0.827,0.136,1.611,0.533c0.238,0.021,0.478,0.039,0.717,0.061
				c9.939,2.617,20.287,3.173,30.426,4.337c5.418,0.95,10.832,1.943,16.257,2.907c2.051,0.562,4.079,1.207,6.074,1.982l2.216-0.547
				l10.671-2.634l20.76,3.374c0,0,11.289,12.13,20.905,6.225l11.681,26.737c0,0,5.323,17.527,11.401,21.346
				C621.767,505.704,618.657,495.375,618.657,495.375z M246.193,407.591c0,0-20.474-4.975-32.95-4.646
				c-12.479,0.332-27.269-8.438-31.36-23.488c-0.229-0.845-0.456-1.582-0.68-2.246c5.047-0.025,12.832,0.726,23.555,3.919
				c20.905,6.225,63.815,18.621,63.815,18.621l15.408,6.513L246.193,407.591z"/>
		</g>
	</g>
</g>
<g id="Group_1_1_">
	<g id="Rounded_Rectangle_1">
		<g>
			<path fill="#0C0B07" d="M195.054,300.822c0,0-8.898-63.234-2.734-80.966c6.164-17.731-16.185-62.954-69.345-65.087
				c-41.911-9.462-64.643,64.172-64.797,69.616c-0.155,5.443,2.733,80.966,2.733,80.966c1.256,37.197,15.164,52.716,69.345,65.087
				C184.438,382.809,196.31,338.019,195.054,300.822z"/>
		</g>
	</g>
	<g id="Ellipse_1_copy_2">
		<g>
			<path fill="#FFFFFF" d="M174.92,216.961c-0.706-20.938-10.769-37.591-22.478-37.194c-11.709,0.396-20.629,17.691-19.923,38.629
				c0.706,20.938,10.769,37.591,22.478,37.194C166.706,255.195,175.626,237.9,174.92,216.961z"/>
		</g>
	</g>
	<g id="Ellipse_1_copy_4">
		<g>
			
				<ellipse transform="matrix(0.9994 -0.0338 0.0338 0.9994 -7.2282 3.551)" fill="#FFFFFF" cx="101.564" cy="215.87" rx="23.4" ry="41.76"/>
		</g>
	</g>
	<g id="Ellipse_1_copy">
		<g>
			
				<ellipse transform="matrix(-0.0337 -0.9994 0.9994 -0.0337 -106.0052 329.1816)" fill="#0C0B07" cx="106.125" cy="215.834" rx="19.32" ry="15"/>
		</g>
	</g>
	<g id="Shape_1">
		<g>
			<path fill="#0C0B07" d="M191.226,158.088c-4.213-14.062-13.907-6.494-13.907-6.494l-16.078,21.675l4.822,0.558
				C166.062,173.826,192.346,161.827,191.226,158.088z"/>
		</g>
	</g>
	<g id="Shape_1_copy">
		<g>
			<path fill="#0C0B07" d="M72.373,153.316c-14.525,2.127-8.444,12.817-8.444,12.817l19.112,19.053l1.251-4.689
				C84.292,180.498,76.235,152.75,72.373,153.316z"/>
		</g>
	</g>
	<g id="Shape_4">
	</g>
	<g id="Group_2_copy_1_">
		<g id="Ellipse_1_copy_5">
			<g>
				<path fill="#0C0B07" d="M178.666,357.691c-12.375-7.91-13.697-5.903-15.471-5.017s-9.037,2.768-7.761,16.625
					c1.145,12.423,4.919,20.087,19.866,14.866C190.248,378.943,183.223,369.106,178.666,357.691z"/>
			</g>
		</g>
		<g id="Shape_8">
			<g>
				<path fill="#FFFFFF" d="M176.516,363.914c-3.51,0.583,1.045,9.744,1.248,9.896s1.337,1.529,1.337,1.529
					S180.026,363.331,176.516,363.914z"/>
			</g>
		</g>
		<g id="Shape_8_copy">
			<g>
				<path fill="#FFFFFF" d="M169.57,366.314c-3.947,0.675,1.189,11.369,1.417,11.547c0.229,0.178,1.506,1.785,1.506,1.785
					S173.517,365.638,169.57,366.314z"/>
			</g>
		</g>
		<g id="Shape_8_copy_2">
			<g>
				<path fill="#FFFFFF" d="M161.877,368.01c-4.386,0.739,1.313,12.391,1.566,12.584c0.254,0.194,1.672,1.944,1.672,1.944
					S166.263,367.271,161.877,368.01z"/>
			</g>
		</g>
	</g>
	<g id="Group_2_1_">
		<g id="Ellipse_1">
			<g>
				<path fill="#0C0B07" d="M108.011,359.325c-8.636-10.884-10.503-9.753-12.409-9.689s-9.135-1.077-12.559,10.532
					c-3.07,10.409-2.174,17.951,13.147,19.215C111.511,380.648,108.377,370.17,108.011,359.325z"/>
			</g>
		</g>
		<g id="Shape_8_1_">
			<g>
				<path fill="#FFFFFF" d="M102.952,364.061c-4.052-0.926-1.7,10.3-1.52,10.542c0.18,0.241,1.03,2.122,1.03,2.122
					S107.004,364.987,102.952,364.061z"/>
			</g>
		</g>
		<g id="Shape_8_copy_1_">
			<g>
				<path fill="#FFFFFF" d="M95.63,362.151c-3.578-1.042-1.424,11.263-1.264,11.528c0.16,0.266,0.923,2.331,0.923,2.331
					S99.208,363.193,95.63,362.151z"/>
			</g>
		</g>
		<g id="Shape_8_copy_2_1_">
			<g>
				<path fill="#FFFFFF" d="M88.02,360.006c-3.818-0.995-1.561,10.881-1.39,11.137c0.17,0.256,0.978,2.247,0.978,2.247
					S91.838,361,88.02,360.006z"/>
			</g>
		</g>
	</g>
	<g id="Shape_2">
		<g>
			<path fill="#0C0B07" d="M78.37,281.019l-14.772-30.292c-13.405,12.431-56.309,62.687-27.493,82.19
				c28.816,19.503,28.459-7.853,32.559-20.122C67.652,288.265,78.37,281.019,78.37,281.019z"/>
		</g>
	</g>
	<g id="Shape_2_copy">
		<g>
			<path fill="#0C0B07" d="M188.777,251.834l-12.829,31.052c0,0,10.328,6.524,10.234,30.975
				c4.283,11.937,4.903,39.156,31.309,17.939C243.899,310.585,201.812,263.343,188.777,251.834z"/>
		</g>
	</g>
	<g id="Ellipse_1_copy_3">
		<g>
			
				<ellipse transform="matrix(-0.0337 -0.9994 0.9994 -0.0337 -60.4302 377.5699)" fill="#0C0B07" cx="152.305" cy="217.997" rx="18.96" ry="14.52"/>
		</g>
	</g>
	<g id="Shape_3">
		<g>
			<polygon fill="#FFFFFF" points="93.1,229.339 99.229,234.551 103.878,229.747 			"/>
		</g>
	</g>
	<g id="Shape_3_copy">
		<g>
			<polygon fill="#FFFFFF" points="138.876,227.693 138.853,234.379 146.908,227.205 			"/>
		</g>
	</g>
	<g id="Shape_7">
		<g>
			<path fill="#FFFFFF" d="M122.406,259.018l7.012,29.152l7.842-30.247C137.26,257.923,131.188,254.44,122.406,259.018z"/>
		</g>
	</g>
</g>
</svg>
